<svg width="232" height="134" viewBox="0 0 232 134" fill="none" xmlns="http://www.w3.org/2000/svg">
<ellipse cx="69.018" cy="74.2571" rx="22.3295" ry="22.0765" fill="url(#paint0_linear_135_2)"/>
<path d="M113.099 82.1661C117.882 99.9019 90.4534 108.912 76.8309 98.9287C72.3334 114.874 41.6007 122.012 36.3135 102.406C31.0264 82.8003 45.4752 55.316 63.7694 50.4937C82.0636 45.6715 108.316 64.4304 113.099 82.1661Z" fill="url(#paint1_linear_135_2)"/>
<path d="M33.3588 58.804C36.8885 63.6574 37.9594 72.9425 33.3391 76.2269C28.7189 79.5114 20.1571 75.5514 16.6273 70.698C13.0976 65.8446 11.8011 56.2494 16.4214 52.9649C21.0416 49.6805 29.8291 53.9506 33.3588 58.804Z" fill="url(#paint2_linear_135_2)"/>
<path d="M50.8628 31.9345C54.1401 37.7569 54.1187 48.1739 48.5759 51.2234C43.0332 54.273 34.068 48.8004 30.7907 42.9779C27.5134 37.1554 27.3253 26.3664 32.8681 23.3168C38.4108 20.2673 47.5855 26.112 50.8628 31.9345Z" fill="url(#paint3_linear_135_2)"/>
<path d="M88.89 28.7084C88.5641 35.3639 82.9833 44.1996 76.6475 43.8964C70.3117 43.5931 65.6201 34.2658 65.946 27.6103C66.2718 20.9548 71.8734 11.6938 78.2093 11.997C84.5451 12.3002 89.2158 22.0528 88.89 28.7084Z" fill="url(#paint4_linear_135_2)"/>
<path d="M112.921 49.2261C109.999 54.4597 101.974 59.3974 96.9917 56.679C92.0094 53.9606 91.9568 44.6155 94.8782 39.3818C97.7997 34.1481 106.012 28.8759 110.994 31.5944C115.976 34.3128 115.842 43.9924 112.921 49.2261Z" fill="url(#paint5_linear_135_2)"/>
<path d="M46.6599 100.789C46.2426 100.787 45.8883 100.65 45.5971 100.378C45.3268 100.085 45.1924 99.73 45.1938 99.3127L45.2672 77.8094C45.2687 77.3712 45.4055 77.0169 45.6777 76.7465C45.9708 76.4762 46.326 76.3418 46.7433 76.3432C47.1815 76.3446 47.5358 76.4815 47.8061 76.7536C48.0765 77.0258 48.2109 77.381 48.2094 77.8192L48.1777 87.1154L62.9827 87.1648L63.0144 77.8686C63.0159 77.4304 63.1528 77.0761 63.425 76.8057C63.718 76.5354 64.0732 76.401 64.4906 76.4024C64.9288 76.4038 65.283 76.5407 65.5534 76.8128C65.8237 77.085 65.9582 77.4402 65.9567 77.8784L65.8833 99.3817C65.8819 99.799 65.745 100.153 65.4728 100.445C65.2006 100.715 64.8454 100.849 64.4072 100.848C63.9898 100.846 63.6355 100.71 63.3443 100.437C63.0741 100.144 62.9396 99.7892 62.9411 99.3719L62.9739 89.7627L48.1688 89.7133L48.136 99.3225C48.1346 99.7398 47.9978 100.094 47.7255 100.385C47.4533 100.656 47.0981 100.79 46.6599 100.789ZM79.1281 101.022C77.5631 101.017 76.1663 100.637 74.9377 99.8814C73.7092 99.1261 72.7424 98.0899 72.0374 96.773C71.3324 95.456 70.9827 93.9732 70.9883 92.3248C70.994 90.6554 71.3747 89.1751 72.1303 87.8839C72.9069 86.5718 73.9433 85.5424 75.2396 84.7955C76.5569 84.0278 78.0293 83.6467 79.6569 83.6521C81.3054 83.6576 82.7752 84.0485 84.0663 84.8249C85.3575 85.5805 86.3764 86.6168 87.1231 87.9339C87.8907 89.2511 88.2822 90.7339 88.2974 92.3825L87.1696 92.6604C87.1642 94.2463 86.8046 95.6745 86.0908 96.945C85.377 98.2155 84.4137 99.2139 83.2009 99.9402C82.009 100.667 80.6514 101.027 79.1281 101.022ZM79.6064 98.4571C80.7332 98.4609 81.7357 98.2034 82.6139 97.6846C83.4921 97.145 84.1832 96.417 84.6872 95.5005C85.2121 94.5632 85.4765 93.5208 85.4804 92.3731C85.4844 91.2046 85.2271 90.1603 84.7085 89.2405C84.2109 88.2998 83.5248 87.5671 82.6502 87.0426C81.7756 86.4971 80.775 86.2225 79.6482 86.2187C78.5631 86.2151 77.571 86.4831 76.6718 87.0226C75.7728 87.5413 75.0608 88.2693 74.536 89.2065C74.032 90.123 73.7781 91.1655 73.7741 92.3341C73.7702 93.4817 74.017 94.5259 74.5146 95.4666C75.0331 96.3865 75.7401 97.1192 76.6355 97.6647C77.531 98.1894 78.5213 98.4535 79.6064 98.4571ZM86.797 100.954C86.3797 100.952 86.0358 100.816 85.7655 100.544C85.4952 100.271 85.3607 99.9266 85.3621 99.5092L85.3792 94.5012L85.9842 91.4984L88.2974 92.3825L88.273 99.519C88.2716 99.9363 88.1244 100.28 87.8313 100.55C87.5591 100.821 87.2144 100.955 86.797 100.954ZM94.4026 108.272C93.9852 108.271 93.6414 108.134 93.371 107.862C93.1007 107.59 92.9662 107.245 92.9677 106.828L93.0171 92.3356C93.0435 90.7081 93.4346 89.2383 94.1903 87.9262C94.9668 86.6141 96.0033 85.5847 97.2996 84.8378C98.5959 84.0909 100.058 83.7201 101.685 83.7256C103.334 83.7311 104.804 84.122 106.095 84.8984C107.407 85.654 108.436 86.6903 109.183 88.0075C109.951 89.3038 110.332 90.7866 110.326 92.456C110.32 94.1044 109.95 95.5848 109.215 96.8969C108.501 98.2092 107.527 99.2389 106.294 99.986C105.06 100.733 103.671 101.104 102.127 101.099C100.812 101.095 99.6239 100.819 98.5615 100.273C97.4992 99.7271 96.6044 98.9938 95.8772 98.0732L95.8473 106.837C95.8459 107.255 95.709 107.598 95.4369 107.869C95.1855 108.139 94.8408 108.274 94.4026 108.272ZM101.635 98.5306C102.741 98.5343 103.733 98.2768 104.611 97.758C105.51 97.2185 106.212 96.4905 106.716 95.574C107.241 94.6367 107.505 93.5942 107.509 92.4466C107.513 91.278 107.256 90.2338 106.737 89.3139C106.239 88.3732 105.543 87.6406 104.647 87.1159C103.773 86.5705 102.783 86.2959 101.677 86.2922C100.571 86.2885 99.5682 86.5564 98.6691 87.096C97.7908 87.6356 97.0997 88.3636 96.5958 89.2801C96.0919 90.1966 95.8379 91.2391 95.8339 92.4076C95.83 93.5553 96.0768 94.5995 96.5744 95.5402C97.0721 96.46 97.7582 97.1926 98.6328 97.7381C99.5283 98.2627 100.529 98.5269 101.635 98.5306ZM116.472 108.346C116.054 108.344 115.711 108.208 115.44 107.936C115.17 107.663 115.035 107.319 115.037 106.901L115.086 92.4092C115.113 90.7817 115.504 89.3119 116.259 87.9998C117.036 86.6877 118.072 85.6583 119.369 84.9114C120.665 84.1645 122.127 83.7937 123.755 83.7992C125.403 83.8047 126.873 84.1956 128.164 84.972C129.476 85.7276 130.505 86.7639 131.252 88.0811C132.02 89.3774 132.401 90.8602 132.395 92.5296C132.389 94.178 132.019 95.6584 131.284 96.9705C130.57 98.2828 129.597 99.3125 128.363 100.06C127.129 100.807 125.74 101.178 124.196 101.172C122.882 101.168 121.693 100.893 120.631 100.347C119.568 99.8007 118.674 99.0674 117.946 98.1468L117.916 106.911C117.915 107.328 117.778 107.672 117.506 107.942C117.255 108.213 116.91 108.347 116.472 108.346ZM123.704 98.6042C124.81 98.6079 125.802 98.3504 126.68 97.8316C127.579 97.2921 128.281 96.5641 128.785 95.6476C129.31 94.7103 129.574 93.6678 129.578 92.5202C129.582 91.3516 129.325 90.3074 128.806 89.3875C128.309 88.4469 127.612 87.7142 126.717 87.1895C125.842 86.6441 124.852 86.3695 123.746 86.3658C122.64 86.3621 121.637 86.63 120.738 87.1696C119.86 87.7092 119.169 88.4372 118.665 89.3537C118.161 90.2702 117.907 91.3127 117.903 92.4812C117.899 93.6289 118.146 94.6731 118.644 95.6138C119.141 96.5336 119.827 97.2662 120.702 97.8117C121.597 98.3363 122.598 98.6005 123.704 98.6042ZM139.158 108.578C138.97 108.577 138.751 108.525 138.501 108.419C137.668 108.041 137.44 107.445 137.818 106.633L147.659 84.8179C148.037 84.0262 148.632 83.7987 149.445 84.1353C150.299 84.4928 150.537 85.0884 150.159 85.9218L140.288 107.705C140.035 108.289 139.659 108.58 139.158 108.578ZM142.816 100.483C142.44 100.649 142.096 100.669 141.783 100.543C141.471 100.416 141.221 100.175 141.034 99.8201L133.977 85.8365C133.79 85.4811 133.76 85.1367 133.886 84.8033C134.034 84.4699 134.295 84.2308 134.671 84.086C135.027 83.9202 135.361 83.9005 135.673 84.0267C136.007 84.1322 136.256 84.373 136.422 84.7491L143.229 98.7006C143.437 99.0769 143.508 99.4319 143.445 99.7656C143.381 100.078 143.172 100.318 142.816 100.483ZM157.812 101.159C157.415 101.158 157.071 101.021 156.78 100.749C156.489 100.456 156.344 100.101 156.345 99.6834L156.424 76.709L159.366 76.7188L159.288 99.6932C159.286 100.111 159.149 100.465 158.877 100.756C158.605 101.026 158.25 101.161 157.812 101.159ZM149.403 79.3774C149.007 79.3761 148.684 79.2498 148.434 78.9986C148.185 78.7473 148.061 78.4235 148.062 78.027C148.063 77.6306 148.19 77.3075 148.441 77.058C148.692 76.8084 149.016 76.6843 149.413 76.6856L166.377 76.7422C166.795 76.7436 167.128 76.8699 167.378 77.1211C167.627 77.3724 167.751 77.6962 167.75 78.0927C167.749 78.4892 167.622 78.8122 167.371 79.0617C167.12 79.3113 166.786 79.4354 166.368 79.434L149.403 79.3774ZM173.549 101.337C171.984 101.332 170.587 100.952 169.358 100.196C168.13 99.441 167.163 98.4048 166.458 97.0879C165.753 95.7709 165.403 94.2881 165.409 92.6397C165.415 90.9703 165.795 89.49 166.551 88.1988C167.327 86.8867 168.364 85.8573 169.66 85.1104C170.977 84.3427 172.45 83.9616 174.077 83.967C175.726 83.9725 177.196 84.3634 178.487 85.1398C179.778 85.8954 180.797 86.9317 181.544 88.2488C182.311 89.566 182.703 91.0488 182.718 92.6974L181.59 92.9753C181.585 94.5612 181.225 95.9894 180.511 97.2599C179.797 98.5304 178.834 99.5288 177.621 100.255C176.429 100.982 175.072 101.342 173.549 101.337ZM174.027 98.772C175.154 98.7758 176.156 98.5183 177.034 97.9995C177.913 97.4599 178.604 96.7319 179.108 95.8154C179.633 94.8781 179.897 93.8357 179.901 92.688C179.905 91.5195 179.648 90.4752 179.129 89.5554C178.631 88.6147 177.945 87.882 177.071 87.3575C176.196 86.812 175.195 86.5374 174.069 86.5336C172.984 86.53 171.991 86.798 171.092 87.3375C170.193 87.8562 169.481 88.5842 168.956 89.5214C168.452 90.4379 168.199 91.4804 168.195 92.649C168.191 93.7966 168.437 94.8408 168.935 95.7815C169.454 96.7014 170.161 97.4341 171.056 97.9796C171.951 98.5043 172.942 98.7684 174.027 98.772ZM181.217 101.269C180.8 101.267 180.456 101.131 180.186 100.858C179.916 100.586 179.781 100.241 179.783 99.8241L179.8 94.8161L180.405 91.8133L182.718 92.6974L182.694 99.8339C182.692 100.251 182.545 100.595 182.252 100.865C181.98 101.136 181.635 101.27 181.217 101.269ZM189.255 101.264C188.817 101.263 188.462 101.126 188.192 100.854C187.922 100.582 187.787 100.237 187.789 99.8195L187.837 85.5779C187.839 85.1397 187.976 84.7959 188.248 84.5464C188.52 84.276 188.875 84.1416 189.313 84.143C189.731 84.1444 190.075 84.2812 190.345 84.5534C190.615 84.8047 190.75 85.1494 190.748 85.5876L190.7 99.8293C190.698 100.247 190.561 100.59 190.289 100.861C190.017 101.131 189.672 101.266 189.255 101.264ZM189.292 81.1694C188.771 81.1676 188.323 80.9783 187.948 80.6015C187.574 80.2246 187.388 79.7649 187.389 79.2224C187.391 78.6799 187.581 78.2319 187.957 77.8784C188.355 77.5041 188.815 77.3178 189.337 77.3196C189.837 77.3212 190.275 77.5105 190.649 77.8873C191.045 78.2434 191.241 78.6927 191.239 79.2352C191.238 79.7778 191.048 80.2362 190.671 80.6106C190.294 80.9849 189.835 81.1712 189.292 81.1694ZM200.613 101.302C199.737 101.299 198.955 101.057 198.268 100.574C197.581 100.092 197.041 99.4331 196.647 98.5971C196.274 97.7403 196.09 96.7589 196.094 95.653L196.153 78.25C196.154 77.8327 196.281 77.4992 196.532 77.2497C196.804 76.9793 197.149 76.8448 197.566 76.8462C198.005 76.8477 198.348 76.9844 198.598 77.2565C198.868 77.5078 199.003 77.8422 199.001 78.2595L198.942 95.6625C198.939 96.4763 199.093 97.1445 199.405 97.6672C199.737 98.19 200.143 98.4522 200.623 98.4538L201.405 98.4564C201.802 98.4578 202.114 98.5944 202.343 98.8665C202.572 99.1176 202.685 99.4623 202.684 99.9005C202.682 100.318 202.504 100.662 202.148 100.932C201.813 101.181 201.375 101.305 200.832 101.303L200.613 101.302ZM212.005 101.465C210.628 101.461 209.324 101.248 208.094 100.826C206.865 100.384 205.897 99.786 205.19 99.0325C204.919 98.7186 204.806 98.3739 204.849 97.9984C204.892 97.6229 205.081 97.3001 205.416 97.03C205.771 96.7599 206.137 96.6463 206.512 96.6893C206.888 96.7323 207.2 96.9003 207.45 97.1933C207.865 97.6537 208.469 98.0522 209.261 98.3887C210.074 98.7253 210.96 98.8952 211.92 98.8984C213.276 98.9029 214.278 98.6872 214.927 98.2511C215.596 97.7943 215.942 97.232 215.965 96.5644C215.968 95.8757 215.646 95.3008 215.001 94.8396C214.356 94.3575 213.22 93.9781 211.593 93.7014C209.487 93.2979 207.955 92.6772 206.998 91.8394C206.041 91.0015 205.565 89.9878 205.569 88.7984C205.573 87.7342 205.868 86.8588 206.454 86.1721C207.062 85.4647 207.846 84.9456 208.807 84.6149C209.789 84.2635 210.823 84.0895 211.908 84.0932C213.285 84.0978 214.494 84.3313 215.536 84.7939C216.578 85.2356 217.411 85.8539 218.034 86.6489C218.304 86.9629 218.418 87.2867 218.375 87.6204C218.353 87.9542 218.185 88.2354 217.871 88.4638C217.558 88.6506 217.192 88.712 216.775 88.648C216.379 88.5841 216.046 88.4056 215.775 88.1125C215.255 87.5683 214.672 87.1907 214.026 86.9799C213.401 86.7483 212.671 86.6311 211.836 86.6283C210.835 86.6249 209.999 86.81 209.33 87.1833C208.682 87.5568 208.357 88.0669 208.355 88.7138C208.354 89.1311 208.457 89.4967 208.664 89.8104C208.893 90.1241 209.309 90.4177 209.913 90.6909C210.517 90.9434 211.383 91.1758 212.509 91.3882C214.073 91.6856 215.303 92.0757 216.198 92.5586C217.115 93.0416 217.77 93.6072 218.164 94.2554C218.559 94.9036 218.754 95.6346 218.752 96.4484C218.748 97.4083 218.474 98.2734 217.929 99.0436C217.405 99.7931 216.641 100.385 215.638 100.82C214.635 101.255 213.424 101.47 212.005 101.465Z" fill="black" fill-opacity="0.69"/>
<defs>
<linearGradient id="paint0_linear_135_2" x1="64.6851" y1="52.1063" x2="76.7931" y2="82.8073" gradientUnits="userSpaceOnUse">
<stop stop-color="#FDFF9D"/>
<stop offset="1" stop-color="#FDFF9D" stop-opacity="0"/>
</linearGradient>
<linearGradient id="paint1_linear_135_2" x1="89.3177" y1="123.929" x2="64.4789" y2="28.4596" gradientUnits="userSpaceOnUse">
<stop offset="0.302785" stop-color="#D0C0EA"/>
<stop offset="1" stop-color="#D0C0EA" stop-opacity="0"/>
</linearGradient>
<linearGradient id="paint2_linear_135_2" x1="16.4214" y1="52.9649" x2="33.0859" y2="76.407" gradientUnits="userSpaceOnUse">
<stop stop-color="#D0C0EA" stop-opacity="0"/>
<stop offset="1" stop-color="#D0C0EA"/>
</linearGradient>
<linearGradient id="paint3_linear_135_2" x1="32.8681" y1="23.3168" x2="48.3042" y2="51.3729" gradientUnits="userSpaceOnUse">
<stop stop-color="#D0C0EA" stop-opacity="0"/>
<stop offset="0.964545" stop-color="#D0C0EA"/>
</linearGradient>
<linearGradient id="paint4_linear_135_2" x1="78.2093" y1="11.997" x2="76.6826" y2="43.898" gradientUnits="userSpaceOnUse">
<stop stop-color="#D0C0EA" stop-opacity="0"/>
<stop offset="1" stop-color="#D0C0EA"/>
</linearGradient>
<linearGradient id="paint5_linear_135_2" x1="110.994" y1="31.5944" x2="97.2348" y2="56.8117" gradientUnits="userSpaceOnUse">
<stop stop-color="#D0C0EA" stop-opacity="0"/>
<stop offset="1" stop-color="#D0C0EA"/>
</linearGradient>
</defs>
</svg>
